<?xml version="1.0" encoding="utf-8"?>
<!-- Generator: Adobe Illustrator 19.0.1, SVG Export Plug-In . SVG Version: 6.00 Build 0)  -->
<svg version="1.1" id="Layer_1" xmlns="http://www.w3.org/2000/svg" xmlns:xlink="http://www.w3.org/1999/xlink" x="0px" y="0px"
	 viewBox="0 0 379.1 379.1" style="enable-background:new 0 0 379.1 379.1;" xml:space="preserve">
<style type="text/css">
	.st0{opacity:0.2;}
</style>
<g id="XMLID_11_" class="st0">
	<path id="XMLID_13_" d="M189.5,379.1C85,379.1,0,294,0,189.5C0,85,85,0,189.5,0C294,0,379.1,85,379.1,189.5
		C379.1,294,294,379.1,189.5,379.1z M189.5,18C95,18,18,95,18,189.5s77,171.5,171.5,171.5s171.5-77,171.5-171.5S284.1,18,189.5,18z"
		/>
</g>
<g id="XMLID_10_" class="st0">
	<polygon id="XMLID_12_" points="207.5,260.6 136.5,189.5 207.5,118.5 220.2,131.2 161.9,189.5 220.2,247.8 	"/>
</g>
</svg>
