<?xml version="1.0" encoding="utf-8"?>
<!-- Generator: Adobe Illustrator 19.0.1, SVG Export Plug-In . SVG Version: 6.00 Build 0)  -->
<svg version="1.1" id="Layer_1" xmlns="http://www.w3.org/2000/svg" xmlns:xlink="http://www.w3.org/1999/xlink" x="0px" y="0px"
	 viewBox="0 0 297.2 118" style="enable-background:new 0 0 297.2 118;" xml:space="preserve">
<style type="text/css">
	.st0{fill:#FFFFFF;}
	.st1{fill:#41AD49;}
</style>
<path class="st0" d="M163.3,43.6c-0.1,0.3-0.1,0.6-0.2,0.9l0,0.1l0,0.1c-0.1,0.9,0.2,1.7,0.8,2.4c0.9,1,2.5,1.6,4.7,1.7l32,0
	c2.6-0.1,4.4-0.7,5.4-1.9c0.4-0.5,0.9-1.5,0.6-2.8c-1.9-8.6-8.9-12.8-21.3-12.8h-0.6c-11.6,0-18.4,3.5-20.8,10.8L163.3,43.6
	L163.3,43.6z M184.3,80.4c-21.4,0-30.9-8.8-31-28.5v-0.3c0.1-19.7,9.6-28.5,31-28.5h1.1c21,0,30.5,8.4,31,27.3c0,1.1-0.3,2-1,2.7
	c-1.1,1.1-3.1,1.8-5.7,1.8l-5.6,0l-41.5,0l0.4,3c1.2,9.7,8.3,14.4,21.6,14.4h0.6c5.4,0,11.5-0.5,16.2-4.2l0.4-0.3
	c1.2-1,2-1.6,4.5-1.6l6.8,0c0.6,0,0.9,0.1,1.1,0.4c0.3,0.4,0.2,1.1,0.2,1.2c-4.5,11.1-17.2,12.6-29,12.6H184.3z M184.3,80.4"/>
<path class="st0" d="M76.6,79.9c-0.4,0-0.9-0.2-1.7-1.6C71,71.6,69,63,69,52V2.4c0-1.4,0.6-2,2-2h5.7c0.5,0,1.6,1,1.6,2v50.9h0
	c0.2,7.5,1.5,13.6,4,18.6c0.2,0.4,0.8,1.6,1.1,2c0.4,0.7,0.3,1.3-0.3,1.8l-4.8,3.4c-0.6,0.5-1,0.7-1.6,0.8
	C76.7,79.9,76.6,79.9,76.6,79.9"/>
<path class="st0" d="M31.2,31.3c-14.9,0-21.9,6.5-21.9,20.5V52c0.1,14,7,20.5,21.9,20.5h0.6c14.9,0,21.9-6.5,21.9-20.5v-0.2
	c-0.1-14-7-20.5-21.9-20.5H31.2z M1.6,118c-0.7,0-1.6-0.9-1.7-1.7V51.4L0,51c0.2-19.2,9.8-27.8,31-27.8h1.1c21.4,0,30.9,8.8,31,28.5
	v0.3c-0.1,19.7-9.6,28.5-31,28.5H31c-5.9,0-10.9-0.5-15-1.5c-0.8-0.2-1.5-0.3-2.2-0.3c-2.8,0-4.5,1.8-4.5,4.8v32.8
	c0,0.7-0.6,1.6-1.7,1.7H1.6z M1.6,118"/>
<path class="st0" d="M138.1,52c0,14-7,20.5-21.9,20.5h-0.6c-14.9,0-21.9-6.5-21.9-20.5v-0.2c0-14,7-20.5,21.9-20.5h0.6
	c14.9,0,21.9,6.5,21.9,20.5V52z M147.4,51.4l0-0.4c-0.2-19.2-9.8-27.8-31-27.8h-1.1c-21.4,0-30.9,8.8-31,28.5v0.3
	c0.1,19.7,9.6,28.5,31,28.5h1.1c5.9,0,10.9-0.5,15-1.5c0.8-0.2,1.5-0.3,2.2-0.3c1.3,0,2.3,0.4,3.1,1c0.7,0.6,0.8,0.6,2.5,0.6h5.4
	c2.5,0,2.9-1.2,2.9-2.3V51.4z M147.4,51.4"/>
<path class="st1" d="M277.3,44.1c-2.7,0-3.6-0.6-3.6,0c0,0.6,3.2,5.8,4.9,8.3c0.7,1.1,1.1,1.8,1.3,2.6c3.2-2,7.4-4.5,9.6-5.9
	c-2.5-1.4-6-3.5-6.8-3.9C281.3,44.6,280,44.1,277.3,44.1"/>
<path class="st1" d="M277.3,26.8c-0.1-0.1-0.2-0.1-0.3-0.1l0-0.1v0.1c-0.1,0-0.2,0-0.3,0.1c-0.1,0.1-0.2,0.1-0.2,0.2
	c-0.1,0.1-0.1,0.3-0.1,0.4c0,0.2,0.1,0.3,0.3,0.4c0.1,0.1,0.2,0.1,0.3,0.1c0,0,0.1,0,0.1,0c0.2,0,0.3-0.1,0.4-0.3
	c0.1-0.1,0.1-0.2,0.1-0.3c0-0.1,0-0.2-0.1-0.3C277.4,27,277.3,26.9,277.3,26.8"/>
<path class="st1" d="M280.8,29.1c-0.1-0.1-0.2-0.1-0.3-0.1c0,0-0.1,0-0.1,0c-0.2,0-0.3,0.1-0.4,0.3c-0.1,0.1-0.1,0.2-0.1,0.3
	c0,0.1,0,0.2,0.1,0.3c0.1,0.1,0.1,0.2,0.2,0.2c0.1,0.1,0.2,0.1,0.3,0.1h0c0.1,0,0.2,0,0.3-0.1c0.1-0.1,0.2-0.1,0.2-0.2
	c0.1-0.1,0.1-0.2,0.1-0.3c0-0.1,0-0.2-0.1-0.3C281,29.2,280.9,29.1,280.8,29.1"/>
<path class="st1" d="M283.1,30.5c-0.1-0.1-0.2-0.1-0.3-0.1l0,0v0c-0.1,0-0.2,0-0.3,0.1c-0.1,0.1-0.2,0.1-0.2,0.2
	c-0.1,0.1-0.1,0.2-0.1,0.3c0,0.1,0,0.2,0.1,0.3c0,0.1,0.1,0.2,0.2,0.2c0.1,0.1,0.2,0.1,0.3,0.1h0c0.1,0,0.2,0,0.3-0.1
	c0.1-0.1,0.2-0.1,0.2-0.2c0.1-0.2,0.1-0.3,0.1-0.5C283.3,30.7,283.2,30.6,283.1,30.5"/>
<path class="st1" d="M285.1,32c0-0.1,0-0.2-0.1-0.2c-0.1-0.1-0.1-0.1-0.2-0.2c-0.1-0.1-0.2-0.1-0.3-0.1c0,0-0.1,0-0.1,0
	c-0.1,0-0.2,0.1-0.3,0.1l0.9,0.6C285.1,32.2,285.1,32.1,285.1,32"/>
<path class="st1" d="M279,27.9c-0.1-0.1-0.2-0.1-0.3-0.1c0,0-0.1,0-0.1,0c-0.2,0-0.3,0.1-0.4,0.3c-0.1,0.1-0.1,0.2-0.1,0.3
	c0,0.1,0,0.2,0.1,0.3c0.1,0.1,0.1,0.2,0.2,0.2c0.1,0.1,0.2,0.1,0.3,0.1h0c0.1,0,0.2,0,0.3-0.1c0.1-0.1,0.2-0.1,0.2-0.2
	c0.1-0.1,0.1-0.3,0.1-0.5C279.2,28.2,279.1,28,279,27.9"/>
<path class="st1" d="M289,34.2c-0.1-0.1-0.2-0.1-0.3-0.1c0,0-0.1,0-0.1,0c-0.2,0-0.3,0.1-0.4,0.3c-0.1,0.1-0.1,0.2-0.1,0.3
	c0,0.1,0,0.2,0.1,0.3c0,0.1,0.1,0.2,0.2,0.2c0.1,0.1,0.2,0.1,0.3,0.1h0c0.1,0,0.2,0,0.3-0.1c0.1-0.1,0.2-0.1,0.2-0.2
	c0.1-0.1,0.1-0.3,0.1-0.5C289.2,34.4,289.1,34.3,289,34.2"/>
<path class="st1" d="M292.1,36.2c0,0.1-0.1,0.3-0.2,0.4l-0.5,0.8l-0.3-0.2l0.5-0.8c0.1-0.1,0.1-0.3,0.2-0.3c0-0.1,0-0.1,0-0.2
	c0-0.1-0.1-0.1-0.1-0.1c-0.1,0-0.1-0.1-0.2-0.1c-0.1,0-0.2,0-0.3,0.1c-0.1,0.1-0.2,0.2-0.3,0.4l-0.4,0.6l-0.3-0.2l0.5-0.8
	c0.1-0.2,0.2-0.3,0.2-0.3c0-0.1,0-0.1,0-0.2c0-0.1-0.1-0.1-0.1-0.1c-0.1,0-0.1-0.1-0.2-0.1c-0.1,0-0.2,0-0.3,0.1
	c-0.1,0.1-0.2,0.2-0.3,0.3l-0.4,0.6l-0.3-0.2l0.9-1.5l0.3,0.2l-0.1,0.2c0.1,0,0.1,0,0.2,0c0.1,0,0.3,0,0.4,0.1
	c0.1,0,0.1,0.1,0.2,0.2c0,0.1,0.1,0.1,0.1,0.2c0,0.1,0,0.1,0,0.2c0.1,0,0.2-0.1,0.3-0.1c0.1,0,0.3,0,0.4,0.1
	c0.1,0.1,0.2,0.1,0.2,0.3C292.1,36,292.1,36.1,292.1,36.2 M288.6,35.6c-0.2,0-0.3,0-0.5-0.1c-0.2-0.1-0.4-0.3-0.4-0.6
	c0-0.2,0-0.5,0.1-0.7c0.1-0.2,0.3-0.3,0.5-0.4c0.1,0,0.2,0,0.2,0c0.2,0,0.3,0,0.5,0.1c0.2,0.1,0.4,0.3,0.4,0.6c0,0.2,0,0.5-0.1,0.7
	c-0.1,0.2-0.3,0.3-0.6,0.4C288.8,35.6,288.7,35.6,288.6,35.6 M287.6,33.7c0-0.2-0.1-0.4-0.3-0.5c-0.1-0.1-0.2-0.1-0.4-0.1
	c0,0-0.1,0-0.1,0c-0.2,0-0.3,0.1-0.4,0.3c-0.1,0.1-0.1,0.2-0.1,0.3c0,0.1,0,0.2,0.1,0.3c0.1,0.1,0.1,0.2,0.2,0.2
	c0.1,0.1,0.2,0.1,0.4,0.1c0.1,0,0.2,0,0.2,0l0,0l0.1,0.3l0,0c-0.1,0.1-0.2,0.1-0.3,0.1c0,0-0.1,0-0.1,0c-0.2,0-0.3-0.1-0.5-0.2
	c-0.2-0.1-0.4-0.3-0.4-0.6c-0.1-0.2,0-0.5,0.1-0.7c0.1-0.1,0.2-0.3,0.4-0.3c0.1-0.1,0.3-0.1,0.4-0.1h0.1c0.2,0,0.3,0.1,0.5,0.2
	c0.1,0.1,0.2,0.1,0.3,0.2c0.1,0.1,0.1,0.2,0.2,0.3c0,0.1,0.1,0.2,0,0.3v0L287.6,33.7L287.6,33.7z M285.6,33.6c0,0.1-0.1,0.1-0.1,0.1
	l-0.1,0c0,0-0.1,0-0.1,0c-0.1,0-0.1-0.1-0.1-0.1c0-0.1,0-0.1,0-0.2c0-0.1,0.1-0.1,0.1-0.1l0.1,0c0,0,0.1,0,0.1,0
	c0.1,0,0.1,0.1,0.1,0.1C285.6,33.5,285.6,33.5,285.6,33.6 M285,32.9c-0.1,0.1-0.2,0.1-0.3,0.1c-0.1,0-0.1,0-0.2,0
	c-0.1,0-0.1,0-0.2,0c-0.1,0-0.2-0.1-0.3-0.1c-0.2-0.1-0.4-0.3-0.4-0.6c0-0.2,0-0.5,0.1-0.7c0.1-0.2,0.3-0.3,0.5-0.4
	c0.1,0,0.2-0.1,0.3-0.1c0.2,0,0.3,0,0.5,0.1c0.2,0.2,0.4,0.4,0.4,0.7c0,0.2,0,0.4-0.2,0.6l0,0l-1.2-0.8c-0.1,0.1-0.1,0.3-0.1,0.4
	c0,0.2,0.1,0.3,0.3,0.4c0.1,0,0.1,0.1,0.2,0.1c0,0,0.1,0,0.1,0c0,0,0.1,0,0.1,0c0.1,0,0.2,0,0.3-0.1l0,0L285,32.9L285,32.9z
	 M282.8,32.1l0.1-0.2c-0.1,0-0.1,0-0.2,0c0,0-0.1,0-0.1,0c-0.1,0-0.3-0.1-0.4-0.1c-0.2-0.1-0.3-0.3-0.4-0.6c-0.1-0.2,0-0.5,0.1-0.7
	c0.1-0.2,0.3-0.3,0.6-0.4c0.1,0,0.1,0,0.2,0c0.2,0,0.3,0,0.5,0.1c0.1,0.1,0.2,0.2,0.3,0.3c0,0.1,0.1,0.2,0.1,0.3l0.1-0.2l0.3,0.2
	l-0.9,1.5L282.8,32.1z M281,30.9l1.3-2l0.3,0.2l-1.3,2L281,30.9z M280.4,30.5c-0.2,0-0.3,0-0.5-0.1c-0.1-0.1-0.2-0.2-0.3-0.3
	c0-0.1-0.1-0.2-0.1-0.3l-0.4,0.7l-0.3-0.2l1.3-2l0.3,0.2l-0.1,0.2c0.1,0,0.1,0,0.2,0c0,0,0,0,0.1,0c0.1,0,0.3,0.1,0.4,0.1
	c0.2,0.1,0.3,0.3,0.4,0.6c0.1,0.2,0,0.5-0.1,0.7c-0.1,0.2-0.3,0.4-0.6,0.4C280.6,30.5,280.5,30.5,280.4,30.5 M278.7,29.4
	c-0.2,0-0.3-0.1-0.5-0.1c-0.2-0.1-0.4-0.3-0.4-0.6c0-0.2,0-0.5,0.1-0.7c0.1-0.2,0.3-0.3,0.5-0.4c0.1,0,0.2,0,0.2,0
	c0.2,0,0.3,0.1,0.5,0.1c0.2,0.1,0.4,0.3,0.4,0.6c0,0.2,0,0.5-0.1,0.7c-0.1,0.2-0.3,0.3-0.6,0.4C278.8,29.4,278.7,29.4,278.7,29.4
	 M277.1,28.7c-0.1,0.1-0.3,0.2-0.4,0.2h0c-0.2,0-0.3-0.1-0.5-0.2c-0.1-0.1-0.2-0.2-0.3-0.3c-0.1-0.1-0.1-0.2-0.2-0.3
	c0-0.1,0-0.2,0-0.4l0-0.1l0.3,0.2v0c0,0.1,0,0.2,0.1,0.3c0.1,0.1,0.1,0.2,0.3,0.2c0.1,0.1,0.2,0.1,0.3,0.1h0c0.1,0,0.2,0,0.2-0.1
	c0.1,0,0.1-0.1,0.2-0.3c-0.1,0-0.1,0-0.2,0c0,0-0.1,0-0.1,0c-0.1,0-0.3-0.1-0.4-0.1c-0.1-0.1-0.2-0.2-0.3-0.3
	c-0.1-0.1-0.1-0.3-0.1-0.4c0-0.2,0.1-0.3,0.1-0.4c0.1-0.1,0.2-0.2,0.3-0.3c0.1-0.1,0.3-0.1,0.4-0.1c0.2,0,0.4,0.1,0.5,0.1
	c0.1,0.1,0.2,0.2,0.3,0.3c0,0.1,0.1,0.2,0.1,0.3l0.1-0.2l0.3,0.2l-0.7,1.2C277.3,28.5,277.2,28.6,277.1,28.7 M275.6,27.3
	c0,0.1-0.1,0.1-0.1,0.1l-0.1,0c0,0-0.1,0-0.1,0c-0.1,0-0.1-0.1-0.1-0.1c0-0.1,0-0.1,0-0.2c0-0.1,0.1-0.1,0.1-0.1l0.1,0
	c0,0,0.1,0,0.1,0c0.1,0,0.1,0.1,0.1,0.1C275.6,27.2,275.6,27.3,275.6,27.3 M274.2,26.7l0.2-1.2l-1,0.7l-0.1,0l0,0l0.3-1.7l-1.4,1
	l-0.1-0.1l0.2-1.2l-1,0.7l-0.1,0l0-0.1l0.3-1.7l-1.4,1l-0.1-0.1l0.2-1.2l-1,0.7l-0.1,0l0-0.1l0.3-1.8l0.3,0.2l-0.2,1.2l1-0.7l0.1,0
	l0,0.1l-0.2,1.2l1-0.7l0.2,0.1l0,0l0.1,0l0.2,0.1l-0.2,1.2l1-0.7l0.1,0l0,0.1l-0.2,1.2l1-0.7l0.2,0.1l0.3,0.2l-0.2,1.2l1-0.7l0.1,0
	l0,0.1l-0.2,1.2l1-0.7l0.3,0.2L274.2,26.7L274.2,26.7z M297.2,38.8c0-0.2,0-0.3,0-0.4c-0.2-1.4-0.6-2.3-1.1-2.7
	c-0.5-0.5-1.2-0.9-1.8-1.4c-1.1-0.7-52-32.6-53.7-33.7c-3.4-2.1-8,1.9-8,4.9V75c0,4.2,6,6.2,8,4.9c1.8-1.1,8-5.1,9-5.7
	c0,0,0.1-0.1,0.1-0.1c0.4-1.8,0.8-3.3,1-3.9c0.6-2.4,1.1-3.2,2.2-4.4c1.1-1.1,9.9-9.2,10.7-10c0.9-0.8,0.7-1.5,0.8-1.7
	c0.1-0.2-3.9-4.1-4.9-5.4c-1-1.2-1.3-0.2-1.6,0c-0.2,0.2-3.5,3.8-5,5.7c-1.6,1.9-2.2,1.3-3.4,1c-1.1-0.3-10.5-6.7-10.5-6.7v-3.4
	c0,0,8.7,2.7,9.6,3c0.9,0.4,1.7,0.7,2.1-0.1c0.4-0.8,2.1-5.4,3.2-6.6c1.1-1.2,2.7-2.3,3.2-2.3c0.5-0.1,0.6-0.3,0.6-0.6
	c0-0.1,0.1-0.1,0.1-0.2c2.5-0.1,4.8-1.3,6.3-3.1c-1.5,1.5-3.6,2.4-5.9,2.4c-4.6,0-8.3-3.7-8.3-8.3c0-4.6,3.7-8.3,8.3-8.3
	c4.6,0,8.3,3.7,8.3,8.3c0,2-0.7,3.8-1.9,5.2h0.5c0.3,0.7,1.2,0.9,1.2,0.9s2.7-0.1,3.7,0c1,0.1,6.9,1.9,9.8,2.8
	c2.9,0.9,4.7,2.1,6.2,3c1.2,0.8,5.4,4.5,6.6,5.6c0.5-0.3,1-0.6,1.5-0.9c0.7-0.5,1.3-0.9,1.8-1.4c0.5-0.5,0.9-1.4,1.1-2.7
	c0-0.1,0-0.2,0-0.4c0,0,0.1-1,0-1.5C297.3,39.7,297.2,38.8,297.2,38.8"/>
<path class="st0" d="M163.2,94l-2.2,2c-0.8-1.1-1.6-1.6-2.4-1.6c-0.4,0-0.7,0.1-1,0.3c-0.3,0.2-0.4,0.5-0.4,0.7
	c0,0.3,0.1,0.5,0.3,0.8c0.2,0.3,1,1,2.2,2c1.2,1,1.9,1.6,2.1,1.8c0.6,0.6,1.1,1.2,1.3,1.8c0.3,0.6,0.4,1.2,0.4,1.9
	c0,1.3-0.5,2.4-1.4,3.2c-0.9,0.9-2.1,1.3-3.5,1.3c-1.1,0-2.1-0.3-3-0.8c-0.8-0.6-1.6-1.4-2.2-2.6l2.6-1.5c0.8,1.4,1.6,2.1,2.6,2.1
	c0.5,0,1-0.2,1.3-0.5c0.4-0.3,0.5-0.7,0.5-1.1c0-0.4-0.1-0.7-0.4-1.1c-0.3-0.4-0.9-0.9-1.8-1.7c-1.7-1.4-2.9-2.5-3.4-3.3
	c-0.5-0.8-0.8-1.5-0.8-2.3c0-1.1,0.4-2.1,1.3-2.8c0.8-0.8,1.9-1.2,3.1-1.2c0.8,0,1.6,0.2,2.3,0.6C161.5,92.3,162.3,93,163.2,94"/>
<path class="st0" d="M165,91.8h3.1v6h5.3v-6h3.1v15.9h-3.1v-7h-5.3v7H165V91.8z M165,91.8"/>
<path class="st0" d="M185.8,94.4c-1.5,0-2.7,0.5-3.7,1.5c-1,1-1.5,2.3-1.5,3.9c0,1.8,0.6,3.2,1.9,4.2c1,0.8,2.1,1.2,3.4,1.2
	c1.4,0,2.7-0.5,3.7-1.6c1-1,1.5-2.3,1.5-3.8c0-1.5-0.5-2.8-1.5-3.9C188.5,94.9,187.3,94.4,185.8,94.4 M185.8,91.4
	c2.3,0,4.2,0.8,5.8,2.4c1.6,1.6,2.4,3.6,2.4,6c0,2.3-0.8,4.3-2.4,5.9c-1.6,1.6-3.5,2.4-5.8,2.4c-2.4,0-4.4-0.8-6-2.5
	c-1.6-1.7-2.4-3.6-2.4-5.9c0-1.5,0.4-2.9,1.1-4.2c0.7-1.3,1.8-2.3,3-3C182.9,91.8,184.3,91.4,185.8,91.4"/>
<path class="st0" d="M195.6,91.8h8.7v3h-5.7v2.9h5.7v2.9h-5.7v4.2h5.7v3h-8.7V91.8z M195.6,91.8"/>
<path class="st0" d="M215,94l-2.2,2c-0.8-1.1-1.6-1.6-2.4-1.6c-0.4,0-0.7,0.1-1,0.3c-0.3,0.2-0.4,0.5-0.4,0.7c0,0.3,0.1,0.5,0.3,0.8
	c0.2,0.3,1,1,2.2,2c1.2,1,1.9,1.6,2.1,1.8c0.6,0.6,1.1,1.2,1.3,1.8c0.3,0.6,0.4,1.2,0.4,1.9c0,1.3-0.5,2.4-1.4,3.2
	c-0.9,0.9-2.1,1.3-3.5,1.3c-1.1,0-2.1-0.3-3-0.8c-0.8-0.6-1.6-1.4-2.2-2.6l2.5-1.5c0.8,1.4,1.6,2.1,2.6,2.1c0.5,0,1-0.2,1.3-0.5
	c0.4-0.3,0.5-0.7,0.5-1.1c0-0.4-0.1-0.7-0.4-1.1c-0.3-0.4-0.9-0.9-1.8-1.7c-1.7-1.4-2.9-2.5-3.4-3.3c-0.5-0.8-0.8-1.5-0.8-2.3
	c0-1.1,0.4-2.1,1.3-2.8c0.8-0.8,1.9-1.2,3.1-1.2c0.8,0,1.6,0.2,2.3,0.6C213.4,92.3,214.2,93,215,94"/>
</svg>
